<svg xmlns="http://www.w3.org/2000/svg" width="128" height="32" fill="none"><path fill="#3F3B3D" d="M44.883 10.755c.416 0 .748 0 .831.09.083.088.083.177.083.533 0 .177.084.444.167.444s.332-.089.748-.444c.332-.178.581-.445 1.08-.534.416-.089.831-.178 1.247-.178.831 0 1.58.356 2.244.978.499.445.914 1.067 1.247 1.867.332.8.415 1.511.415 2.4 0 1.867-.581 3.2-1.745 4.444-.914.89-1.829 1.423-2.91 1.423-.58 0-1.08-.09-1.745-.445-.083-.089-.166-.089-.332-.089s-.333.178-.333.622c0 .534.167.978.5 1.156.332.178.498.445.581.445.083.088.083.177.083.444 0 .444-.166.8-.748.978-.416.178-1.08.355-1.912.355-1.413 0-2.742-.355-3.823-.977-.499-.356-.831-.623-.831-1.156 0-.178 0-.356.083-.445.083-.088.166-.177.499-.355.332-.178.582-.445.582-.978.083-.444.083-1.689.166-3.91 0-1.69-.083-2.668-.166-2.934 0-.09-.084-.09-.084-.09s-.083-.177-.415-.177a.517.517 0 0 1-.499-.355c-.083-.178-.166-.356-.166-.623 0-.266.083-.533.332-.8.167-.178.499-.444.915-.622 1.662-.622 2.992-1.067 3.906-1.067Zm.997 4-.083 2.934v.355c0 .178.084.445.333.534.166.088.415.177.748.177.914 0 1.413-.8 1.413-2.4 0-1.066-.166-1.689-.582-2.133-.166-.178-.499-.444-.831-.444-.665 0-.998.355-.998.977ZM62.836 16.533h-4.654c-.166 0-.333.089-.333.356 0 .444.167.889.748 1.333.582.444.998.622 1.496.622.333 0 .748-.089 1.081-.178.416-.088.748-.355.997-.444.167-.178.416-.178.5-.178.165 0 .331.09.498.356.166.178.166.444.166.8 0 .533-.333.977-.914 1.51-.998.89-2.328 1.334-3.657 1.334-1.413 0-2.494-.444-3.574-1.333-.5-.445-.832-.978-1.081-1.511-.416-.8-.582-1.6-.582-2.578 0-1.156.333-2.311.998-3.2.581-.889 1.33-1.422 2.244-1.867.748-.355 1.413-.444 2.244-.444 1.33 0 2.327.444 3.242 1.155.415.445.83.89 1.08 1.423.332.622.499 1.155.499 1.688 0 .445-.083.89-.333 1.156-.166-.178-.332 0-.665 0Zm-4.405-1.956h.998c.415 0 .581-.177.581-.622 0-.444-.083-.622-.332-.978a1.228 1.228 0 0 0-.831-.355c-.416 0-.748.089-.915.444-.166.356-.332.534-.332.89 0 .177 0 .355.083.444.333.178.499.178.748.178ZM70.234 13.511v3.556c0 .444.083.8.332 1.066.166.356.416.445.748.445.333 0 .582-.09.998-.445h.415c.166 0 .333.09.416.356.083.178.166.444.166.622 0 .444-.166.889-.748 1.333-.914.89-2.161 1.334-3.408 1.334-1.08 0-1.912-.356-2.493-.978a3.744 3.744 0 0 1-.998-2.578v-4.978c0-.177 0-.177-.083-.355 0 0-.083-.089-.332-.089h-.998c-.166 0-.332 0-.415-.089-.083-.089-.083-.178-.083-.444v-.445c0-.178.083-.355.166-.444l4.737-3.111c.084-.09.333-.09.416-.09h.831c.166 0 .333 0 .333.09.083.089.083.177.083.444v1.422c0 .178 0 .356.083.445.083.089.166.089.415.089h1.83c.165 0 .415 0 .498.088.083.09.083.356.083.623V12c0 .355 0 .533-.083.8-.083.089-.333.178-.499.178h-1.829c-.166 0-.332 0-.415.089-.166.088-.166.177-.166.444ZM77.797 10.666c.333 0 .915.09 1.58.178h.415c.083 0 .333-.089.748-.178.166-.088.333-.088.416-.088.332 0 .582.177.914.622.332.355.499.622.582 1.067.166.444.166.8.166 1.066 0 .356-.083.534-.332.8-.167.178-.416.356-.748.356-.167 0-.416-.09-.582-.178-.166-.089-.499-.444-.915-.8-.415-.444-.83-.622-.997-.622-.166 0-.332.089-.499.178-.083.088-.166.355-.166.533 0 .355.333.622.914.978 1.081.533 1.995 1.066 2.66 1.689.499.533.831 1.155.831 1.955 0 .978-.415 1.867-1.246 2.489-.748.533-1.496.889-2.494.889-.332 0-.748 0-1.413-.089-.665-.178-1.08-.178-1.163-.178h-.749c-.332 0-.581-.089-.748-.178-.332-.177-.498-.622-.83-1.333-.167-.533-.333-1.067-.333-1.422 0-.622.166-.978.748-.978.166 0 .415.089.499.178.166.089.498.444.997 1.066.332.356.499.534.748.623.166.089.416.177.582.177.166 0 .415-.088.498-.177.084-.09.167-.356.167-.534 0-.355-.333-.622-.831-.889-1.081-.533-1.829-1.155-2.328-1.688-.498-.623-.748-1.334-.748-2.045 0-.889.166-1.6.748-2.133.665-.889 1.663-1.334 2.91-1.334ZM88.353 10.755c.416 0 .748 0 .831.09.084.088.084.177.084.533 0 .177.083.444.166.444s.332-.089.748-.444c.332-.178.582-.445 1.08-.534.416-.089.832-.178 1.247-.178.831 0 1.58.356 2.244.978.499.445.915 1.067 1.247 1.867.332.8.415 1.511.415 2.4 0 1.867-.581 3.2-1.745 4.444-.914.89-1.829 1.423-2.909 1.423-.582 0-1.08-.09-1.745-.445-.084-.089-.167-.089-.333-.089s-.332.178-.332.622c0 .534.166.978.498 1.156.333.178.499.445.582.445.083.088.083.177.083.444 0 .444-.166.8-.748.978-.415.178-1.08.355-1.912.355-1.412 0-2.742-.355-3.823-.977-.499-.356-.831-.623-.831-1.156 0-.178 0-.356.083-.445.083-.088.166-.177.499-.355.332-.178.582-.445.582-.978.083-.444.083-1.689.166-3.91 0-1.69-.083-2.668-.166-2.934 0-.09-.084-.09-.084-.09s-.083-.177-.332-.177a.517.517 0 0 1-.499-.355c-.083-.178-.166-.356-.166-.623 0-.266.083-.533.332-.8.167-.178.5-.444.915-.622 1.662-.622 2.826-1.067 3.823-1.067Zm.998 4-.084 2.934v.355c0 .178.084.445.333.534.166.088.416.177.748.177.914 0 1.413-.8 1.413-2.4 0-1.066-.166-1.689-.582-2.133-.166-.178-.499-.444-.831-.444-.665 0-.997.355-.997.977ZM102.732 12.8v3.466c0 1.512 0 2.4.084 2.578 0 .178.166.445.498.534.167.088.416.177.499.355.083.09.083.178.083.445 0 .177-.083.444-.166.622a2.538 2.538 0 0 1-.582.444c-.499.09-1.33.178-2.41.178-1.33 0-2.245-.089-2.743-.355-.166-.09-.416-.178-.582-.445-.166-.178-.166-.444-.166-.622s0-.356.083-.445c.083-.088.332-.177.499-.355.332-.089.415-.445.498-.978.083-.978.166-2.311.166-4s0-2.844-.083-3.378c-.083-.533-.332-.889-.748-1.066-.332-.178-.498-.356-.582-.445-.083-.089-.166-.178-.166-.444 0-.356.166-.622.499-.89.333-.177.831-.532 1.496-.8.499-.088.997-.355 1.829-.444.748-.088 1.33-.177 1.579-.177.499 0 .831.355.831 1.066 0 .178 0 .8-.083 1.6-.249 1.422-.249 2.578-.333 3.556ZM110.213 10.666c1.08 0 2.161.356 2.909.978.416.356.748.8.914 1.156.167.444.333.978.333 1.689v1.6c0 1.066.083 1.866.166 2.133.083.089.083.178.166.356.083 0 .167.088.416.088.249 0 .332.178.332.445 0 .355-.083.622-.415 1.067-.333.355-.582.622-.998.977-.498.356-.997.445-1.579.445-.748 0-1.247-.178-1.579-.8-.083-.178-.333-.356-.416-.356-.083 0-.332.09-.498.178-.748.533-1.413.8-2.245.8-.914 0-1.579-.178-2.161-.622-.332-.178-.581-.622-.831-1.067-.166-.444-.332-.889-.332-1.333 0-.8.332-1.422.831-1.956.914-.889 2.244-1.333 3.906-1.422.416 0 .582 0 .748-.089.084-.089.084-.355.084-.533 0-.8-.084-1.334-.167-1.6-.083-.267-.415-.534-.748-.534-.166 0-.415.09-.498.178-.167.09-.333.356-.582.8-.582.89-1.247 1.422-1.829 1.422-.332 0-.582-.088-.831-.355s-.332-.444-.332-.889c0-.356.083-.622.415-.978.333-.355.582-.622.998-.889 1.246-.533 2.493-.889 3.823-.889Zm-.665 6.134c-.332 0-.499.089-.831.444a1.41 1.41 0 0 0-.333.89c0 .355.084.621.167.888.166.178.415.356.581.356.499 0 .832-.445.832-1.423 0-.444 0-.622-.084-.8 0-.266-.083-.355-.332-.355Z"/><path fill="#3F3B3D" d="m125.008 16-1.33 3.911c-.333.978-.582 1.689-.998 2.4-.332.622-.748 1.067-1.08 1.511-.914.889-1.912 1.333-3.158 1.333-.998 0-1.829-.355-2.411-.889-.499-.444-.748-.977-.748-1.6 0-.533.166-.977.499-1.422a1.635 1.635 0 0 1 1.247-.533c.498 0 .914.178 1.08.533.083.09.166.356.333.445 0 .089.083.444.166.8.083.355.166.444.498.444a.516.516 0 0 0 .499-.355c.083-.178.166-.445.166-.8 0-.356-.166-.89-.498-1.69l-2.411-5.51c-.332-.534-.415-.978-.582-1.067-.083-.089-.415-.356-.831-.533l-.332-.356c-.166-.178-.083-.355-.083-.444 0-.623.582-1.067 1.745-1.334.831-.089 1.746-.178 2.743-.178.748 0 1.247.09 1.579.178.499.178.831.534.831 1.067 0 .178-.083.444-.166.622s-.166.445-.166.622c0 .178 0 .356.083.534.083.178.166.533.416.977.332.534.498.8.748.8.166 0 .415-.177.582-.622.166-.444.332-.889.332-1.333 0-.356-.083-.533-.166-.8-.333-.356-.416-.533-.416-.889 0-.355.166-.622.748-.889.416-.178.998-.355 1.829-.355 1.413 0 2.161.355 2.161 1.066 0 .178-.083.445-.166.623a1.826 1.826 0 0 1-.832.444c-.332.089-.581.355-.831.622a30.291 30.291 0 0 0-1.08 2.667ZM5.569 27.733c-.831.178-1.08.445-1.58.89 0 .8.084 1.422.084 2.31 0 .445.415 1.156 1.413.534.665-.534.332-3.022 1.246-4.09-.415 0-.748.268-1.163.357ZM33.247 17.333c-1.08.09-4.655.178-6.733-1.333 0 .089.083.178.166.356 1.247 1.866 2.993 2.844 4.572 3.2.748-.09 1.33-.178 1.995-.534 1.246-.355.748-1.778 0-1.689ZM14.629 3.2c1.579-.8 3.74.622 5.652 3.2.332-.089.581-.355.914-.444-2.078-2.756-4.489-4.178-6.234-3.378-.748.355-1.247.889-1.58 1.689.416-.534.832-.8 1.248-1.067ZM24.52 22.044c-.333 1.423-.998 2.49-1.912 2.934-.499.177-.998.177-1.496.089.83.355 1.496.355 2.244 0 .914-.445 1.58-1.423 1.995-2.667-.333-.178-.665-.267-.831-.356Z"/><path fill="#3F3B3D" d="M21.195 4.533c-2.244-2.577-4.738-3.91-6.899-3.022-3.324 1.422-4.073 8.178-1.58 15.022 2.494 6.845 7.232 11.2 10.64 9.867 1.33-.533 2.244-1.867 2.66-3.644.166-.623.498 3.91-2.993 5.333-3.574 1.511-8.644-3.378-11.47-10.933C8.727 9.51 9.558 2.045 13.133.445c2.244-1.245 5.402.622 8.062 4.088Z"/><path fill="#3F3B3D" d="M10.14 16.889C8.395 11.999 8.23 7.11 9.558 4.267c-1.579.977-2.825 4.977-1.579 10.4-1.911 1.155-2.826 1.51-4.82.977C1.578 15.2.996 13.511.913 13.69c-1.413 2.933 1.746 5.155 3.574 5.067-.166 3.11-1.994 4.8-2.826 5.955-.997 1.6-1.246 3.645-1.413 6.4 0 .444.333 1.333 1.33.8.582-.356.582-2.844 1.746-3.822.997-.89 1.413-.8 3.324-1.511 2.161-.89 4.073-2.311 4.24-4.178.083.178.332.533.498.8 2.66 4.089 4.82 3.378 4.82 3.378-2.659-2.134-4.654-5.867-6.067-9.69ZM32.25 4.444c.166-.622.498-2.133-.167-2.666-.332-.178-.748.8-1.745 1.422.498.089 1.413.533 1.911 1.244ZM33.662 20.8c-1.496 0-5.485-.8-7.563-4-1.995-3.2.166-6.667 3.823-5.6 5.735 1.69 5.985-1.51 5.818-2.578-1.662-.622-2.909-.8-3.075-1.955C32.166 4.178 29.922 4 29.34 3.645c-.083-.445-.581-2.4-1.579-2.4-.499 0-.083 2.044-1.58 3.466a90.566 90.566 0 0 0-13.547 7.022c.166 1.423.582 2.934 1.246 4.445.5 1.511 1.247 2.933 1.912 4.089.998 0 2.244 0 3.824.089 5.32.177 9.226 3.2 13.963 2.4 1.08-.445.831-1.867.083-1.956ZM30.504 6.222c.332 0 .415.178.415.534 0 .355-.166.444-.498.444-.333 0-.416-.178-.416-.533.167-.178.333-.445.499-.445Z"/></svg>