<svg xmlns="http://www.w3.org/2000/svg" width="128" height="32" fill="none"><path fill="#3F3B3D" d="M24.195 19.111c-.936.355-1.405.978-1.405 1.689 0 .622.469 1.155 1.249 1.511.937.355 2.03.622 3.59.622 2.342 0 4.059-.355 5.308-1.067 1.248-.71 1.873-1.6 2.029-2.755v-.533h-6.868c-1.717 0-2.966.177-3.903.533ZM77.737 19.111c-.937.355-1.405.978-1.405 1.689 0 .622.468 1.155 1.249 1.511.936.355 2.029.622 3.59.622 2.341 0 4.058-.355 5.307-1.067 1.249-.71 1.873-1.6 2.03-2.755v-.533h-6.869c-1.717 0-2.966.177-3.902.533Z"/><path fill="#3F3B3D" d="M127.376 14.756c0-3.912-5.464-6.934-12.176-6.934-.624 0-1.405 0-2.029.09.156-.268.156-.623.156-.89 0-3.2-4.683-5.778-10.147-5.778-4.682 0-8.741 1.778-9.834 4.267-1.717-.267-3.434-.355-5.15-.355-1.718 0-3.435.177-5.152.355-.937-1.155-3.122-1.955-5.463-1.955a9.869 9.869 0 0 0-3.747.71C73.054 1.779 69.307 0 64.937 0c-4.527 0-8.274 1.867-8.898 4.356C53.385 3.11 49.795 2.4 46.205 2.4c-4.527 0-8.585 1.067-11.395 2.844-2.03-.266-4.059-.533-6.244-.533-4.059 0-7.805.533-11.083 1.6a18.73 18.73 0 0 0-5.151-.711C5.932 5.6.78 8.622.78 12.178c0 2.044 1.561 3.822 4.059 4.978 0 .355-.156.8-.156 1.244C4.527 25.956 15.298 32 28.566 32c4.058 0 7.805-.533 10.927-1.511 2.029.622 4.526.978 7.024.978 5.307 0 9.678-1.6 12.332-4C61.034 28.8 64 29.6 67.278 29.6c2.185 0 4.37-.356 6.088-.978 3.746 1.867 8.741 3.022 13.892 3.022 4.996 0 9.523-.977 13.113-2.666 2.185 1.244 5.151 1.955 8.585 1.955 6.868 0 12.176-3.11 12.176-6.933 0-1.067-.469-2.044-1.093-2.933 4.371-.978 7.337-3.467 7.337-6.311ZM43.239 25.244h-2.966c-1.717 0-2.966-.177-3.746-.622-.78-.444-1.093-.978-1.093-1.778-2.03 1.69-4.839 2.578-8.585 2.578-2.966 0-5.308-.355-7.025-1.155-1.717-.8-2.653-1.867-2.653-3.2 0-1.511.936-2.667 2.81-3.556 1.873-.8 4.682-1.244 8.273-1.244h6.556v-.89c0-.8-.468-1.51-1.561-1.955-1.093-.444-2.498-.71-4.215-.71-1.56 0-2.966.177-3.902.621-1.093.356-1.717.89-1.873 1.6h-5.464c.312-1.51 1.405-2.666 3.434-3.466 2.03-.8 4.683-1.245 7.961-1.245 3.434 0 6.244.445 8.117 1.422 1.873.89 2.81 2.312 2.81 4v5.778c0 .711.625 1.067 1.717 1.067l1.405-.089v2.844Zm16.234-11.91h-2.497c-2.342 0-3.903.444-4.995 1.244-1.093.8-1.562 1.955-1.562 3.2v7.378h-5.463V10.4h4.995l.625 2.222c.78-.71 1.717-1.244 2.965-1.6 1.25-.355 2.81-.622 4.84-.622h1.248c-.156 0-.156 2.933-.156 2.933Zm7.961 11.91h-5.463V10.4h5.463v14.844Zm-.312-17.6c-.624.356-1.405.534-2.341.534-.937 0-1.718-.178-2.342-.534-.624-.355-.937-.8-.937-1.333 0-.533.313-.978.937-1.244.624-.356 1.405-.534 2.342-.534.936-.089 1.717.09 2.341.534.624.355.936.8.936 1.333 0 .533-.312.889-.936 1.244Zm29.502 17.6H93.66c-1.718 0-2.966-.177-3.747-.622-.78-.444-1.093-.978-1.093-1.778-2.029 1.69-4.838 2.578-8.585 2.578-2.966 0-5.307-.355-7.024-1.155-1.717-.8-2.654-1.867-2.654-3.2 0-1.511.937-2.667 2.81-3.556 1.873-.8 4.683-1.244 8.273-1.244h6.556v-.89c0-.8-.468-1.51-1.56-1.955-1.094-.444-2.498-.71-4.216-.71-1.56 0-2.965.177-3.902.621-1.093.356-1.717.89-1.873 1.6H71.18c.313-1.51 1.405-2.666 3.435-3.466 2.029-.8 4.683-1.245 7.96-1.245 3.435 0 6.245.445 8.118 1.422 1.873.89 2.81 2.312 2.81 4v5.778c0 .711.624 1.067 1.716 1.067l1.405-.089v2.844Zm8.43 0H99.59V4.978h5.464v20.266Z"/></svg>