<svg xmlns="http://www.w3.org/2000/svg" width="128" height="32" fill="none"><path fill="#3F3B3D" d="M22.348 24.356H11.646c-.315 0-.525-.09-.735-.356L3.149 12.533c-.105-.177-.105-.444 0-.71L10.912.355c.21-.356.734-.445 1.154-.267.42.178.524.622.314.978l-7.554 11.11 7.345 10.756h10.282c.42 0 .839.356.839.711 0 .356-.42.712-.945.712Z"/><path fill="#3F3B3D" d="M14.269 20.8a.96.96 0 0 1-.735-.356l-5.35-7.91c-.105-.178-.105-.445 0-.712L16.052.356c.105-.178.42-.356.735-.356H32.42c.42 0 .839.356.839.711 0 .356-.42.711-.84.711H17.208L9.862 12.178l5.141 7.555c.21.356.105.711-.315.978-.104.089-.21.089-.42.089Z"/><path fill="#3F3B3D" d="M42.702 16.711a.96.96 0 0 1-.735-.355L34.518 5.244H19.829L14.69 12.8c-.21.356-.735.444-1.155.267-.42-.178-.524-.623-.314-.978l5.35-7.911c.105-.178.42-.356.735-.356h15.633c.314 0 .524.09.734.356l7.764 11.466c.21.356.105.712-.315.978-.105 0-.21.09-.42.09Z"/><path fill="#3F3B3D" d="M32.42 32c-.105 0-.21-.089-.42-.089-.42-.178-.525-.622-.315-.978l7.554-11.11-7.344-10.756H21.718c-.42 0-.84-.356-.84-.711 0-.356.42-.711.84-.711H32.42c.314 0 .524.088.734.355l7.764 11.467c.105.178.105.444 0 .71l-7.764 11.468c-.105.177-.42.355-.734.355Z"/><path fill="#3F3B3D" d="M27.279 31.911H11.646c-.42 0-.84-.355-.84-.71 0-.356.42-.712.84-.712h15.213l7.344-10.755-5.14-7.556c-.21-.356-.106-.711.314-.978.42-.178.84-.089 1.154.267l5.351 7.911c.105.178.105.444 0 .711l-7.869 11.467c-.105.266-.42.355-.734.355Z"/><path fill="#3F3B3D" d="M24.866 28.09H9.128c-.315 0-.525-.09-.735-.357L.63 16.356c-.21-.356-.105-.8.21-.978.419-.178.839-.089 1.153.267l7.555 11.11h14.688l5.141-7.555c.21-.355.735-.444 1.154-.267.42.178.525.623.315.978l-5.35 7.822c-.21.267-.42.356-.63.356ZM71.03 13.6h-1.994c-.525-1.333-1.364-2.4-2.623-3.2-1.259-.889-2.728-1.333-4.511-1.333-2.309 0-4.197.71-5.666 2.044-1.469 1.333-2.203 3.111-2.203 5.334 0 2.222.734 3.91 2.203 5.333 1.469 1.422 3.253 2.044 5.666 2.044 1.678 0 3.252-.444 4.511-1.333 1.154-.889 2.099-1.956 2.623-3.2H73.338c-.63 2.133-1.994 3.911-3.882 5.333-1.889 1.422-4.407 2.134-7.45 2.134-3.776 0-6.714-.978-8.917-3.023-2.309-1.955-3.463-4.444-3.463-7.377 0-2.934 1.154-5.334 3.463-7.378 2.203-1.956 5.245-3.022 8.918-3.022 3.042 0 5.56.71 7.449 2.133 1.993 1.422 3.252 3.2 3.882 5.333H71.03v.178ZM80.892 4.178v22.311h-4.197V4.178h4.197ZM87.397 12.178c1.783-1.6 4.196-2.4 7.134-2.4 2.938 0 5.246.8 7.135 2.4 1.888 1.6 2.727 3.644 2.727 6.044v.445c0 .177-.104.355-.104.444H89.075c.21 1.245.735 2.222 1.574 3.022 1.05.978 2.518 1.512 4.302 1.512 1.049 0 1.993-.178 2.623-.623.734-.355 1.364-.889 1.783-1.51H104.08c-.735 1.51-1.889 2.755-3.463 3.644-1.573.889-3.567 1.333-5.77 1.333-3.148 0-5.56-.8-7.344-2.4-1.889-1.6-2.728-3.644-2.728-6.044 0-2.312.944-4.267 2.623-5.867Zm12.695 4.71c-.21-1.066-.63-1.955-1.364-2.666-.944-.977-2.308-1.51-4.092-1.51-1.783 0-3.147.444-4.092 1.51-.734.711-1.154 1.6-1.364 2.667h10.912ZM109.744 12.178c1.889-1.6 4.302-2.4 7.449-2.4 3.148 0 5.666.8 7.45 2.4 1.888 1.6 2.727 3.644 2.727 6.044 0 2.4-.839 4.534-2.727 6.045-1.784 1.6-4.302 2.4-7.45 2.4h-.104c-3.148 0-5.666-.8-7.45-2.4-1.888-1.6-2.728-3.645-2.728-6.045.105-2.489 1.05-4.444 2.833-6.044Zm11.751 2.044c-1.049-.977-2.518-1.6-4.302-1.6-1.783 0-3.147.534-4.301 1.6-1.049.978-1.679 2.4-1.679 4s.525 2.934 1.679 4c1.049.978 2.518 1.511 4.301 1.511 1.784 0 3.253-.444 4.302-1.51 1.049-.979 1.679-2.4 1.679-4s-.63-2.934-1.679-4Z"/></svg>