<svg xmlns="http://www.w3.org/2000/svg" width="128" height="32" fill="none"><path fill="#3F3B3D" d="M3.873.71 10.633 24l5.974-20.978 6.105 21.067L29.276.71h1.838l-8.73 30.933h-1.116l-5.58-19.2-5.382 19.111H8.993L.13.711h3.742ZM38.925 0 49.56 31.289h-3.873l-3.479-10.222h-9.65l-3.544 10.222H27.11L38.006 0h.92Zm-5.71 19.111h8.336l-4.136-12-4.2 12ZM53.038.71h3.742v28.623h11.355v1.956H52.972V.71h.066ZM105.223.71v1.956H93.342V13.69h7.942v1.955h-7.942v13.69h11.881v1.955H89.469V.71h15.754ZM109.227.71h2.1l14.769 22.4h.132V.71h1.641V32h-.788L111.065 7.2h-.132v24.178h-1.772L109.227.71Z"/><path fill="#3F3B3D" d="M84.94 9.422c-.657-1.867-1.576-3.644-2.889-5.067-1.116-1.244-2.56-2.222-4.2-2.844-1.642-.622-3.677-.889-6.04-.889h-7.548V24.8h3.872V2.933h4.07c1.379 0 2.626.267 3.676.978 1.182.622 2.1 1.511 2.888 2.667.788 1.155 1.444 2.577 1.904 4.088.46 1.6.656 3.378.656 5.245 0 2.133-.197 4-.722 5.689-.525 1.689-1.181 3.022-1.969 4.089-.853 1.066-1.838 1.955-2.954 2.578-1.181.622-2.297.888-3.61.888h-.657v2.223h1.248c2.1 0 4.004-.356 5.58-1.245 1.575-.8 2.953-1.955 4.134-3.378 1.116-1.333 1.97-3.022 2.56-4.977.591-1.867.854-3.912.854-6.045.066-2.31-.197-4.355-.854-6.31Z"/></svg>