<svg xmlns="http://www.w3.org/2000/svg" width="40" height="16" fill="none"><g clip-path="url(#a)"><path fill="#5F6368" d="M18.919 7.817v4.69h-1.477V.924h3.917a3.52 3.52 0 0 1 2.537 1.003 3.221 3.221 0 0 1 1.06 2.444 3.23 3.23 0 0 1-1.06 2.459c-.685.658-1.53.986-2.537.986h-2.44Zm0-5.467v4.043h2.477a1.94 1.94 0 0 0 1.462-.599 1.973 1.973 0 0 0 .593-1.415 1.986 1.986 0 0 0-.593-1.415 1.927 1.927 0 0 0-1.462-.615h-2.477v.001ZM28.36 4.323c1.092 0 1.953.294 2.585.882.632.588.948 1.394.947 2.417v4.885H30.48v-1.1h-.064c-.612.906-1.425 1.358-2.44 1.358-.867 0-1.592-.258-2.176-.776a2.478 2.478 0 0 1-.875-1.94c0-.82.307-1.473.923-1.957.615-.484 1.436-.727 2.464-.728.877 0 1.6.161 2.167.485v-.34a1.706 1.706 0 0 0-.61-1.317c-.39-.355-.9-.549-1.426-.543-.825 0-1.478.351-1.959 1.052l-1.3-.825c.715-1.035 1.774-1.553 3.177-1.553Zm-1.911 5.758a1.196 1.196 0 0 0 .49.97c.326.259.732.396 1.147.388a2.347 2.347 0 0 0 1.662-.695c.49-.464.734-1.008.734-1.633-.46-.37-1.103-.554-1.927-.554-.6 0-1.1.146-1.5.437-.405.296-.606.655-.606 1.087ZM40.003 4.582 35.07 16h-1.525l1.83-3.995-3.243-7.423h1.606l2.344 5.693h.032l2.28-5.693h1.609Z"/><path fill="#4285F4" d="M12.95 6.806c0-.454-.038-.906-.114-1.353h-6.23v2.562h3.568a3.093 3.093 0 0 1-1.32 2.022v1.664h2.13c1.247-1.158 1.966-2.87 1.966-4.895Z"/><path fill="#34A853" d="M6.606 13.308c1.783 0 3.284-.59 4.378-1.607l-2.13-1.663c-.592.405-1.355.636-2.248.636-1.723 0-3.186-1.17-3.709-2.747H.704v1.715a6.636 6.636 0 0 0 2.435 2.675 6.57 6.57 0 0 0 3.467.99Z"/><path fill="#FBBC04" d="M2.897 7.927a4.014 4.014 0 0 1 0-2.547V3.666H.704a6.693 6.693 0 0 0 0 5.976l2.193-1.715Z"/><path fill="#EA4335" d="M6.606 2.634a3.572 3.572 0 0 1 2.534.998l1.885-1.9A6.322 6.322 0 0 0 6.606 0a6.57 6.57 0 0 0-3.467.99A6.636 6.636 0 0 0 .704 3.666L2.897 5.38c.523-1.576 1.986-2.746 3.709-2.746Z"/></g><defs><clipPath id="a"><path fill="#fff" d="M0 0h40v16H0z"/></clipPath></defs></svg>