<svg xmlns="http://www.w3.org/2000/svg" width="60" height="16" fill="none"><path fill="#253B80" d="M22.36 3.272h-3.309a.46.46 0 0 0-.454.39l-1.339 8.502a.276.276 0 0 0 .273.32h1.58a.46.46 0 0 0 .454-.39l.361-2.294a.46.46 0 0 1 .454-.389h1.048c2.18 0 3.438-1.057 3.766-3.151.148-.917.007-1.637-.422-2.141-.47-.554-1.304-.847-2.412-.847Zm.382 3.106c-.181 1.19-1.088 1.19-1.966 1.19h-.499l.35-2.222a.276.276 0 0 1 .273-.234h.229c.597 0 1.161 0 1.452.342.174.203.227.506.16.924ZM32.252 6.34h-1.585a.276.276 0 0 0-.272.232l-.07.445-.111-.161c-.343-.5-1.108-.666-1.872-.666-1.75 0-3.246 1.329-3.538 3.193-.151.93.064 1.82.59 2.44.484.57 1.174.807 1.997.807 1.41 0 2.193-.909 2.193-.909l-.07.441a.276.276 0 0 0 .271.32h1.428a.46.46 0 0 0 .454-.389l.856-5.435a.275.275 0 0 0-.271-.319Zm-2.209 3.09c-.153.907-.871 1.516-1.788 1.516-.46 0-.828-.148-1.064-.428-.234-.279-.323-.675-.248-1.116.142-.9.873-1.528 1.775-1.528.45 0 .816.15 1.057.432.242.286.337.684.268 1.124ZM40.692 6.34h-1.593a.461.461 0 0 0-.38.202l-2.197 3.241-.93-3.115a.461.461 0 0 0-.442-.329h-1.565a.276.276 0 0 0-.262.366l1.754 5.158-1.649 2.332c-.13.184.001.437.225.437h1.59c.152 0 .293-.074.379-.198l5.296-7.66a.276.276 0 0 0-.226-.435Z"/><path fill="#179BD7" d="M45.964 3.272h-3.31a.46.46 0 0 0-.454.39l-1.338 8.502a.276.276 0 0 0 .272.32h1.698a.322.322 0 0 0 .318-.273l.38-2.41a.46.46 0 0 1 .453-.39h1.048c2.18 0 3.438-1.057 3.767-3.151.148-.917.005-1.637-.423-2.141-.47-.554-1.303-.847-2.411-.847Zm.382 3.106c-.18 1.19-1.088 1.19-1.966 1.19h-.499l.351-2.222a.275.275 0 0 1 .272-.234h.229c.597 0 1.161 0 1.453.342.173.203.226.506.16.924ZM55.855 6.34h-1.584a.275.275 0 0 0-.272.232l-.07.445-.111-.161c-.343-.5-1.107-.666-1.871-.666-1.751 0-3.246 1.329-3.538 3.193-.15.93.064 1.82.59 2.44.484.57 1.174.807 1.996.807 1.411 0 2.194-.909 2.194-.909l-.071.441a.276.276 0 0 0 .273.32h1.427a.46.46 0 0 0 .454-.389l.857-5.435a.277.277 0 0 0-.274-.319Zm-2.209 3.09c-.152.907-.871 1.516-1.788 1.516-.459 0-.827-.148-1.064-.428-.234-.279-.322-.675-.248-1.116.143-.9.873-1.528 1.775-1.528.45 0 .816.15 1.057.432.243.286.338.684.268 1.124ZM57.723 3.506l-1.358 8.658a.276.276 0 0 0 .272.32h1.366a.46.46 0 0 0 .454-.39l1.34-8.503a.276.276 0 0 0-.273-.319h-1.529c-.135 0-.25.1-.272.234Z"/><path fill="#253B80" d="m3.516 14.135.253-1.61-.564-.013H.513L2.384.627a.157.157 0 0 1 .052-.094.153.153 0 0 1 .1-.036h4.539c1.506 0 2.546.314 3.09.934.254.29.416.595.494.93.082.35.084.77.004 1.281l-.006.038v.327l.254.145c.215.114.385.244.516.394.217.248.358.564.418.94.061.385.04.843-.06 1.363-.116.597-.304 1.117-.557 1.543a3.17 3.17 0 0 1-.883.97 3.58 3.58 0 0 1-1.19.537 5.918 5.918 0 0 1-1.486.172h-.353a1.07 1.07 0 0 0-.69.255c-.194.167-.322.395-.36.644l-.027.145-.448 2.839-.02.104c-.005.033-.014.05-.028.06a.075.075 0 0 1-.046.017H3.516Z"/><path fill="#179BD7" d="M11.152 3.717a7.9 7.9 0 0 1-.046.267c-.599 3.08-2.646 4.143-5.262 4.143H4.513c-.32 0-.59.233-.64.549l-.681 4.332-.193 1.229a.341.341 0 0 0 .336.394h2.362c.28 0 .517-.203.56-.48l.024-.12.445-2.828.028-.155a.568.568 0 0 1 .562-.48h.353c2.288 0 4.08-.932 4.603-3.625.219-1.126.105-2.065-.473-2.726a2.258 2.258 0 0 0-.647-.5Z"/><path fill="#222D65" d="M10.526 3.467a4.737 4.737 0 0 0-.582-.13 7.381 7.381 0 0 0-1.174-.085H5.213a.564.564 0 0 0-.561.48l-.757 4.804-.022.14a.647.647 0 0 1 .64-.549h1.331c2.616 0 4.663-1.064 5.262-4.143.018-.091.033-.18.046-.267a3.188 3.188 0 0 0-.626-.25Z"/><path fill="#253B80" d="M4.652 3.733a.567.567 0 0 1 .56-.48H8.77c.422 0 .815.027 1.174.085a4.698 4.698 0 0 1 .717.171c.176.059.34.128.492.208.178-1.138-.002-1.912-.616-2.614C9.86.331 8.64 0 7.075 0H2.536a.649.649 0 0 0-.64.55L.004 12.556a.39.39 0 0 0 .385.451h2.802l.703-4.472.757-4.803Z"/></svg>