<svg xmlns="http://www.w3.org/2000/svg" width="39" height="16" fill="none"><g clip-path="url(#a)"><path fill="#000" d="M7.13 2.063c-.457.54-1.189.966-1.92.906-.091-.731.267-1.508.686-1.987C6.353.426 7.153.03 7.8 0c.076.761-.22 1.507-.67 2.063Zm.662 1.05c-1.058-.06-1.965.602-2.468.602-.51 0-1.28-.571-2.117-.556-1.09.015-2.102.632-2.659 1.614-1.142 1.963-.297 4.871.808 6.47.54.791 1.188 1.659 2.041 1.629.808-.03 1.128-.526 2.103-.526.982 0 1.264.526 2.117.51.884-.015 1.44-.791 1.98-1.583.618-.898.87-1.773.884-1.82-.015-.014-1.706-.661-1.721-2.61-.015-1.629 1.333-2.405 1.394-2.451-.762-1.127-1.95-1.248-2.362-1.279ZM13.91.906v11.867h1.843V8.716h2.552c2.331 0 3.969-1.599 3.969-3.913S20.666.906 18.365.906H13.91Zm1.843 1.553h2.126c1.6 0 2.513.852 2.513 2.352s-.914 2.36-2.521 2.36h-2.118V2.458Zm9.888 10.405c1.157 0 2.231-.586 2.719-1.515h.038v1.424h1.706V6.866c0-1.713-1.37-2.817-3.48-2.817-1.959 0-3.406 1.12-3.46 2.657h1.662c.137-.73.815-1.21 1.744-1.21 1.127 0 1.76.525 1.76 1.492v.654l-2.301.137c-2.14.13-3.298 1.005-3.298 2.527 0 1.538 1.196 2.558 2.91 2.558Zm.495-1.408c-.983 0-1.608-.472-1.608-1.195 0-.746.602-1.18 1.752-1.249l2.05-.129v.67c0 1.111-.945 1.903-2.194 1.903ZM32.38 16c1.797 0 2.643-.685 3.382-2.763L39 4.164h-1.874l-2.17 7.01h-.039l-2.17-7.01h-1.928l3.123 8.639-.167.525c-.282.89-.74 1.233-1.554 1.233-.145 0-.427-.015-.541-.03v1.423c.107.03.564.046.7.046Z"/></g><defs><clipPath id="a"><path fill="#fff" d="M0 0h39v16H0z"/></clipPath></defs></svg>