<svg xmlns="http://www.w3.org/2000/svg" width="170" height="24" fill="none"><g clip-path="url(#a)"><path fill="#000" d="M45.028 8.571H62.18v1.834h-6.753v10.334h-3.701V10.404H45l.028-1.833Zm16.416 3.359h3.165v1.703h.056c.113-.243.311-.47.594-.698a4.328 4.328 0 0 1 1.045-.616c.396-.195.848-.34 1.356-.454.48-.114.99-.179 1.498-.179.396 0 .678.016.82.016.14.017.31.033.452.033V13.6c-.227-.033-.48-.05-.735-.065-.254-.016-.48-.033-.735-.033a6.49 6.49 0 0 0-1.61.195c-.509.13-.933.324-1.328.568a3.18 3.18 0 0 0-.904.94 2.47 2.47 0 0 0-.34 1.299v4.185h-3.39l.056-8.76Zm24.526 8.809h-3.334v-1.233h-.057c-.424.454-1.045.795-1.865 1.07a7.866 7.866 0 0 1-2.514.406c-2.007 0-3.476-.276-4.38-.86-.904-.567-1.356-1.444-1.356-2.595V11.93h3.39v5.402c0 .779.255 1.33.792 1.639.508.324 1.243.486 2.175.486.707 0 1.3-.065 1.78-.194.48-.13.876-.293 1.159-.503.31-.211.508-.47.65-.763.14-.292.197-.616.197-.957v-5.11h3.391v8.809h-.028Zm5.764-2.823c.113.568.48.957 1.13 1.2.65.228 1.44.341 2.345.341.31 0 .678-.016 1.074-.048a7.746 7.746 0 0 0 1.13-.163c.367-.08.65-.194.876-.356.226-.163.339-.358.31-.6-.028-.244-.169-.455-.48-.617-.31-.163-.678-.276-1.13-.39a15.92 15.92 0 0 0-1.582-.243c-.593-.065-1.187-.146-1.808-.227a31.539 31.539 0 0 1-1.837-.292 7.252 7.252 0 0 1-1.582-.47c-.452-.195-.848-.439-1.102-.747a1.57 1.57 0 0 1-.424-1.12c0-.486.198-.875.621-1.2.396-.324.933-.584 1.555-.779.621-.194 1.328-.34 2.09-.421a20.63 20.63 0 0 1 2.176-.114c.791 0 1.554.049 2.26.146.707.097 1.385.243 1.95.47.593.211 1.074.503 1.441.844.396.34.622.763.735 1.25H97.95c-.17-.471-.537-.78-1.102-.942-.594-.162-1.243-.243-2.006-.243-.226 0-.537.016-.848.032a8.192 8.192 0 0 0-.932.13 2.731 2.731 0 0 0-.735.276c-.198.114-.31.276-.31.47 0 .244.14.422.423.568.283.146.65.26 1.13.373.452.098.99.179 1.583.244s1.215.146 1.836.227a30.66 30.66 0 0 1 1.808.292c.594.114 1.13.26 1.583.47.452.195.847.438 1.13.73.282.292.424.666.424 1.087 0 .52-.198.958-.622 1.33a5.099 5.099 0 0 1-1.61.893c-.65.227-1.413.39-2.204.503-.82.097-1.61.162-2.402.162-.96 0-1.865-.065-2.684-.194-.82-.13-1.554-.325-2.148-.568-.593-.26-1.073-.568-1.412-.957a2.143 2.143 0 0 1-.565-1.363h3.418v.016h.029Zm11.16-5.986h2.572V9.269h3.39v2.644h3.052v1.444h-3.052v4.705c0 .21.028.373.057.535a.825.825 0 0 0 .198.373c.113.098.282.179.48.228.226.048.508.08.904.08.226 0 .48 0 .706-.015.226-.017.481-.033.707-.065v1.508c-.368.033-.735.05-1.102.065-.367.033-.707.033-1.102.033-.904 0-1.611-.049-2.147-.146-.537-.098-.961-.244-1.272-.422-.311-.195-.509-.422-.622-.698-.113-.275-.169-.616-.197-.973v-5.192h-2.572v-1.476.033Zm11.387 0h3.193v1.2h.057c.48-.52 1.13-.876 1.977-1.103.848-.227 1.752-.34 2.769-.34 1.215 0 2.261.113 3.165.372.904.244 1.639.568 2.232 1.006.593.422 1.045.925 1.328 1.493a4.08 4.08 0 0 1 .452 1.817c0 .6-.141 1.168-.395 1.72a4.436 4.436 0 0 1-1.215 1.476c-.537.422-1.215.762-2.063 1.022-.848.26-1.808.39-2.939.39-.48 0-.988-.033-1.469-.082-.48-.049-.96-.13-1.413-.243a6.499 6.499 0 0 1-1.243-.438 3.714 3.714 0 0 1-.96-.617h-.057V24h-3.391V11.93h-.028Zm11.839 4.412c0-.389-.085-.778-.283-1.151-.169-.374-.452-.698-.819-.99-.367-.292-.819-.52-1.328-.698-.537-.178-1.158-.26-1.836-.26-1.413 0-2.487.277-3.222.844-.706.568-1.073 1.33-1.073 2.272 0 .454.085.86.282 1.233.198.373.452.697.848.973.367.276.819.487 1.356.649.537.162 1.13.243 1.837.243.791 0 1.413-.097 1.949-.276a4.562 4.562 0 0 0 1.328-.697c.339-.292.594-.617.735-.99.141-.39.226-.762.226-1.152Zm5.962-7.77h3.39v1.833h-3.39V8.57Zm0 3.358h3.39v8.809h-3.39v-8.81Zm6.414-3.359h3.39V20.74h-3.39V8.57Zm13.732 12.411c-1.215 0-2.317-.113-3.278-.357-.961-.243-1.752-.551-2.43-.957-.65-.405-1.158-.908-1.497-1.476a3.629 3.629 0 0 1-.537-1.866c0-.665.169-1.282.537-1.85.339-.567.847-1.054 1.497-1.476.65-.405 1.469-.73 2.43-.957a14.32 14.32 0 0 1 3.278-.357c1.215 0 2.317.114 3.277.357.961.227 1.752.552 2.43.957.65.406 1.159.909 1.498 1.477.339.567.536 1.184.536 1.85 0 .68-.169 1.297-.536 1.865a4.934 4.934 0 0 1-1.498 1.476c-.65.406-1.469.73-2.43.957-.96.227-2.034.357-3.277.357Zm0-1.54c.734 0 1.412-.098 1.949-.277a4.08 4.08 0 0 0 1.356-.714c.368-.292.622-.632.792-.99a2.71 2.71 0 0 0 .254-1.135 2.695 2.695 0 0 0-1.046-2.109c-.367-.292-.819-.52-1.356-.697a6.463 6.463 0 0 0-1.949-.276c-.735 0-1.413.097-1.95.276a4.39 4.39 0 0 0-1.356.697 2.631 2.631 0 0 0-.791.99 2.68 2.68 0 0 0-.255 1.12c0 .388.085.762.255 1.135.169.373.423.697.791.99.367.291.819.535 1.356.713.565.195 1.215.276 1.95.276Zm8.759-7.512h2.571V9.269h3.39v2.644H170v1.444h-3.052v4.705c0 .21.029.373.057.535a.825.825 0 0 0 .198.373c.113.098.282.179.48.228.226.048.509.08.904.08.226 0 .481 0 .707-.015.226-.017.48-.033.706-.065v1.508a25.12 25.12 0 0 1-1.102.065c-.367.033-.706.033-1.102.033-.904 0-1.61-.049-2.147-.146-.537-.098-.961-.244-1.272-.422-.311-.195-.508-.422-.621-.698-.113-.275-.17-.616-.198-.973v-5.192h-2.571v-1.476.033Z"/><path fill="#00B67A" d="M41 8.516H25.336L20.514 0l-4.85 8.516L0 8.5l12.668 5.27-4.85 8.516 12.668-5.27 12.668 5.27-4.822-8.517L41 8.517Z"/><path fill="#005128" d="m29 15.747-1.096-2.033L20 17.143l9-1.396Z"/></g><defs><clipPath id="a"><path fill="#fff" d="M0 0h170v24H0z"/></clipPath></defs></svg>